<?xml version="1.0" standalone="no"?>
<!DOCTYPE svg PUBLIC "-//W3C//DTD SVG 20010904//EN"
 "http://www.w3.org/TR/2001/REC-SVG-20010904/DTD/svg10.dtd">
<svg version="1.0" xmlns="http://www.w3.org/2000/svg"
 width="1328.000000pt" height="1328.000000pt" viewBox="0 0 1328.000000 1328.000000"
 preserveAspectRatio="xMidYMid meet">
<metadata>
Created by potrace 1.14, written by Peter Selinger 2001-2017
</metadata>
<g transform="translate(0.000000,1328.000000) scale(0.100000,-0.100000)"
fill="#000000" stroke="none">
<path d="M4579 11476 c-2 -2 -49 -7 -103 -10 -261 -16 -633 -79 -891 -151 -33
-9 -71 -19 -84 -21 -66 -13 -438 -145 -548 -195 -23 -10 -45 -19 -48 -19 -16
0 -364 -176 -465 -235 -62 -36 -114 -65 -117 -65 -9 0 -329 -221 -423 -293
-225 -172 -531 -457 -692 -642 -123 -144 -150 -176 -227 -279 -106 -141 -248
-356 -341 -515 -240 -415 -443 -948 -536 -1406 -4 -18 -32 -166 -39 -205 -10
-57 -22 -139 -30 -220 -4 -36 -9 -72 -10 -80 -20 -109 -27 -685 -12 -870 11
-124 16 -178 21 -215 3 -16 8 -52 11 -80 4 -27 13 -88 22 -135 8 -47 18 -110
24 -141 15 -90 93 -393 139 -539 121 -383 312 -788 541 -1145 35 -55 67 -104
71 -110 4 -5 64 -85 132 -177 388 -521 870 -947 1461 -1290 175 -102 445 -231
620 -298 11 -5 36 -15 55 -23 156 -68 582 -188 825 -233 22 -4 42 -8 45 -9 3
0 30 -5 60 -9 30 -4 64 -10 75 -11 11 -2 40 -7 65 -10 25 -3 65 -8 90 -11 24
-4 56 -8 70 -10 14 -1 75 -7 135 -11 146 -11 4200 -10 4335 0 128 10 166 14
205 21 17 2 55 8 85 11 30 3 91 13 135 20 44 8 96 17 115 20 200 32 593 144
840 240 179 69 455 198 595 278 266 151 580 367 758 519 28 25 72 62 97 82 75
62 347 335 440 441 381 438 677 930 881 1464 96 250 200 619 234 825 3 17 12
67 20 111 22 123 40 270 52 430 15 195 8 711 -12 870 -2 17 -9 71 -15 120 -7
50 -18 128 -26 175 -9 47 -20 111 -25 143 -17 104 -98 409 -148 563 -137 415
-321 798 -557 1154 -92 140 -139 208 -157 230 -7 8 -40 52 -74 96 -199 262
-562 625 -813 814 -18 14 -38 30 -44 35 -43 42 -410 290 -501 340 -22 12 -65
36 -95 54 -146 84 -471 235 -653 302 -175 65 -464 154 -566 174 -9 2 -56 12
-106 24 -49 11 -103 22 -120 25 -16 3 -70 12 -120 21 -49 9 -110 18 -135 20
-25 3 -56 7 -70 10 -25 4 -67 8 -250 24 -89 8 -4193 14 -4201 7z"/>
</g>
</svg>
